<?xml version="1.0" encoding="UTF-8"?>
<!DOCTYPE svg PUBLIC "-//W3C//DTD SVG 1.1//EN" "http://www.w3.org/Graphics/SVG/1.1/DTD/svg11.dtd">
<svg xmlns="http://www.w3.org/2000/svg" version="1.1" width="217px" height="217px" style="shape-rendering:geometricPrecision; text-rendering:geometricPrecision; image-rendering:optimizeQuality; fill-rule:evenodd; clip-rule:evenodd" xmlns:xlink="http://www.w3.org/1999/xlink">
<g><path style="opacity:0.004" fill="#000000" d="M 44.5,19.5 C 43.8333,18.1667 43.8333,18.1667 44.5,19.5 Z"/></g>
<g><path style="opacity:0.004" fill="#000000" d="M 171.5,18.5 C 172.833,19.1667 172.833,19.1667 171.5,18.5 Z"/></g>
<g><path style="opacity:0.004" fill="#000000" d="M 176.5,22.5 C 177.833,23.1667 177.833,23.1667 176.5,22.5 Z"/></g>
<g><path style="opacity:0.004" fill="#000000" d="M 190.5,35.5 C 191.833,36.1667 191.833,36.1667 190.5,35.5 Z"/></g>
<g><path style="opacity:0.004" fill="#000000" d="M 194.5,40.5 C 195.833,41.1667 195.833,41.1667 194.5,40.5 Z"/></g>
<g><path style="opacity:0.004" fill="#000000" d="M 19.5,44.5 C 18.8333,43.1667 18.8333,43.1667 19.5,44.5 Z"/></g>
<g><path style="opacity:0.004" fill="#000000" d="M 196.5,43.5 C 197.833,44.1667 197.833,44.1667 196.5,43.5 Z"/></g>
<g><path style="opacity:0.976" fill="#353233" d="M 97.5,-0.5 C 104.5,-0.5 111.5,-0.5 118.5,-0.5C 137.771,1.81394 155.438,8.4806 171.5,19.5C 173.142,20.803 174.809,22.1363 176.5,23.5C 181.141,27.8052 185.807,32.1386 190.5,36.5C 191.124,38.754 192.457,40.4206 194.5,41.5C 194.932,42.7095 195.599,43.7095 196.5,44.5C 207.313,60.2778 213.98,77.6111 216.5,96.5C 216.5,104.167 216.5,111.833 216.5,119.5C 213.938,137.846 207.605,154.846 197.5,170.5C 196.026,171.436 195.026,172.77 194.5,174.5C 193.026,175.436 192.026,176.77 191.5,178.5C 190.833,178.5 190.5,178.833 190.5,179.5C 189.833,179.5 189.5,179.833 189.5,180.5C 188.833,180.5 188.5,180.833 188.5,181.5C 187.833,181.5 187.5,181.833 187.5,182.5C 186.833,182.5 186.5,182.833 186.5,183.5C 185.833,183.5 185.5,183.833 185.5,184.5C 184.833,184.5 184.5,184.833 184.5,185.5C 183.833,185.5 183.5,185.833 183.5,186.5C 182.833,186.5 182.5,186.833 182.5,187.5C 181.833,187.5 181.5,187.833 181.5,188.5C 180.833,188.5 180.5,188.833 180.5,189.5C 179.833,189.5 179.5,189.833 179.5,190.5C 178.833,190.5 178.5,190.833 178.5,191.5C 176.77,192.026 175.436,193.026 174.5,194.5C 173.833,194.5 173.5,194.833 173.5,195.5C 171.973,195.427 170.973,196.094 170.5,197.5C 155.131,207.399 138.464,213.732 120.5,216.5C 112.167,216.5 103.833,216.5 95.5,216.5C 77.5361,213.732 60.8695,207.399 45.5,197.5C 45.0269,196.094 44.0269,195.427 42.5,195.5C 41.4206,193.457 39.754,192.124 37.5,191.5C 32.1388,185.807 26.8054,180.14 21.5,174.5C 20.9744,172.77 19.9744,171.436 18.5,170.5C 8.39496,154.846 2.06163,137.846 -0.5,119.5C -0.5,111.833 -0.5,104.167 -0.5,96.5C 2.02021,77.6111 8.68688,60.2778 19.5,44.5C 26.8333,35.1667 35.1667,26.8333 44.5,19.5C 60.5625,8.4806 78.2292,1.81394 97.5,-0.5 Z"/></g>
<g><path style="opacity:1" fill="#e5e6e6" d="M 36.5,29.5 C 34.5,32.1667 32.1667,34.5 29.5,36.5C 30.8333,33.1667 33.1667,30.8333 36.5,29.5 Z"/></g>
<g><path style="opacity:1" fill="#d4d4d5" d="M 179.5,29.5 C 182.833,30.8333 185.167,33.1667 186.5,36.5C 183.833,34.5 181.5,32.1667 179.5,29.5 Z"/></g>
<g><path style="opacity:1" fill="#eae5e6" d="M 52.5,17.5 C 47.4549,21.8777 42.1215,25.8777 36.5,29.5C 40.9795,24.3529 46.3128,20.3529 52.5,17.5 Z"/></g>
<g><path style="opacity:1" fill="#e2e0e0" d="M 163.5,17.5 C 169.687,20.3529 175.021,24.3529 179.5,29.5C 173.878,25.8777 168.545,21.8777 163.5,17.5 Z"/></g>
<g><path style="opacity:1" fill="#f0ebec" d="M 163.5,17.5 C 126.497,-2.46327 89.497,-2.46327 52.5,17.5C 69.2116,6.43479 87.7116,1.10146 108,1.5C 128.288,1.10146 146.788,6.43479 163.5,17.5 Z"/></g>
<g><path style="opacity:1" fill="#9d081a" d="M 163.5,17.5 C 168.545,21.8777 173.878,25.8777 179.5,29.5C 181.5,32.1667 183.833,34.5 186.5,36.5C 214.061,70.5346 220.228,108.201 205,149.5C 198.288,146.772 191.788,143.772 185.5,140.5C 188.271,138.233 190.938,135.733 193.5,133C 195.198,133.497 196.865,133.33 198.5,132.5C 200.167,129.667 201.833,126.833 203.5,124C 202.261,121.787 202.594,119.787 204.5,118C 203.978,117.05 203.311,116.216 202.5,115.5C 205.167,113.5 205.167,111.5 202.5,109.5C 203.383,108.452 204.05,107.285 204.5,106C 202.704,104.247 201.538,102.08 201,99.5C 199.89,97.9632 198.39,97.2965 196.5,97.5C 196.285,99.7743 195.618,101.941 194.5,104C 196.163,106.483 195.829,108.65 193.5,110.5C 194.167,111.5 194.833,112.5 195.5,113.5C 193.28,116.785 192.113,120.451 192,124.5C 190.392,123.567 189.559,124.233 189.5,126.5C 189.876,128.383 190.876,129.883 192.5,131C 190.253,134.75 187.253,137.583 183.5,139.5C 177.068,137.452 170.735,135.118 164.5,132.5C 175.078,99.0572 165.744,72.8906 136.5,54C 103.003,40.3291 75.8362,48.1624 55,77.5C 46.3805,95.3347 45.2139,113.668 51.5,132.5C 38.1824,137.078 25.1824,142.412 12.5,148.5C 10.6473,147.811 9.48066,146.478 9,144.5C -3.64091,104.662 3.19242,68.6619 29.5,36.5C 32.1667,34.5 34.5,32.1667 36.5,29.5C 42.1215,25.8777 47.4549,21.8777 52.5,17.5C 89.497,-2.46327 126.497,-2.46327 163.5,17.5 Z"/></g>
<g><path style="opacity:1" fill="#f7ebed" d="M 164.5,30.5 C 166.484,30.484 167.484,31.484 167.5,33.5C 166.685,38.1125 165.185,42.4459 163,46.5C 161.318,45.1354 161.151,43.6354 162.5,42C 160.879,38.8496 158.546,38.0163 155.5,39.5C 154.692,39.1924 154.025,38.6924 153.5,38C 157.233,35.4772 160.899,32.9772 164.5,30.5 Z"/></g>
<g><path style="opacity:1" fill="#a41e2a" d="M 162.5,34.5 C 164.807,35.405 164.807,36.7383 162.5,38.5C 160.206,37.3746 160.206,36.0412 162.5,34.5 Z"/></g>
<g><path style="opacity:1" fill="#f8edee" d="M 52.5,28.5 C 54.288,28.2148 55.9547,28.5481 57.5,29.5C 55.205,29.6894 53.205,31.0228 51.5,33.5C 52,33.8333 52.5,34.1667 53,34.5C 59.4331,30.6585 62.4331,32.3252 62,39.5C 59.2251,42.6539 56.0584,43.1539 52.5,41C 54.2852,39.8372 56.2852,39.1705 58.5,39C 59.3366,37.9887 59.67,36.8221 59.5,35.5C 57.0628,35.7563 54.7294,36.4229 52.5,37.5C 47.4381,34.5874 47.4381,31.5874 52.5,28.5 Z"/></g>
<g><path style="opacity:1" fill="#f5e6e8" d="M 60.5,23.5 C 61.4959,23.4142 62.3292,23.7476 63,24.5C 64.5795,27.9939 66.4128,31.3272 68.5,34.5C 67.8244,36.3535 66.8244,36.6869 65.5,35.5C 63.8793,31.7557 61.8793,28.2557 59.5,25C 60.056,24.6174 60.3893,24.1174 60.5,23.5 Z"/></g>
<g><path style="opacity:1" fill="#f5e5e7" d="M 131.5,15.5 C 135.287,14.8144 138.454,15.8144 141,18.5C 141.749,19.635 141.583,20.635 140.5,21.5C 139.1,19.6041 137.267,18.2707 135,17.5C 133.739,17.7591 132.739,18.4258 132,19.5C 131.186,21.9018 131.353,24.2351 132.5,26.5C 134.586,28.0234 136.252,27.69 137.5,25.5C 133.919,24.6441 133.753,23.6441 137,22.5C 140.312,23.4577 141.145,25.4577 139.5,28.5C 128.09,29.9224 125.423,25.5891 131.5,15.5 Z"/></g>
<g><path style="opacity:1" fill="#f8eeef" d="M 147.5,20.5 C 151.457,21.2952 154.457,23.2952 156.5,26.5C 156.272,28.3969 155.272,29.7303 153.5,30.5C 154.725,33.7051 153.558,35.7051 150,36.5C 146.945,35.3895 144.112,33.8895 141.5,32C 143.64,28.2186 145.64,24.3853 147.5,20.5 Z"/></g>
<g><path style="opacity:1" fill="#a42228" d="M 146.5,28.5 C 149.797,28.6317 151.463,30.2984 151.5,33.5C 146.973,34.138 145.306,32.4714 146.5,28.5 Z"/></g>
<g><path style="opacity:1" fill="#a42329" d="M 148.5,23.5 C 150.17,23.7512 151.67,24.4178 153,25.5C 153.563,26.7248 153.23,27.7248 152,28.5C 150.581,27.5399 149.081,26.7065 147.5,26C 148.252,25.3292 148.586,24.4959 148.5,23.5 Z"/></g>
<g><path style="opacity:1" fill="#f6e6e8" d="M 75.5,16.5 C 77.5969,20.53 79.5969,24.6967 81.5,29C 80.4071,30.3654 79.0738,30.6987 77.5,30C 70.4285,23.3616 69.0951,24.195 73.5,32.5C 72.5,33.8333 71.5,33.8333 70.5,32.5C 68.5862,28.6772 67.2529,24.6772 66.5,20.5C 70.1985,21.0038 73.3652,22.6704 76,25.5C 75.9929,22.8116 75.1596,20.3116 73.5,18C 74.4158,17.7216 75.0825,17.2216 75.5,16.5 Z"/></g>
<g><path style="opacity:1" fill="#f6e7e8" d="M 86.5,13.5 C 91.6642,13.8337 94.3309,16.667 94.5,22C 93.4587,26.3622 90.6254,28.5289 86,28.5C 85.228,28.3552 84.5613,28.0219 84,27.5C 82.6859,23.2464 81.8526,18.913 81.5,14.5C 83.4147,14.7845 85.0813,14.4511 86.5,13.5 Z"/></g>
<g><path style="opacity:1" fill="#a42328" d="M 84.5,16.5 C 91.232,15.4816 93.232,18.1483 90.5,24.5C 89.109,25.6446 87.7757,25.6446 86.5,24.5C 85.5178,21.9044 84.8511,19.2377 84.5,16.5 Z"/></g>
<g><path style="opacity:1" fill="#f2dadd" d="M 120.5,19.5 C 120.369,20.3764 120.702,21.0431 121.5,21.5C 122.48,18.9135 122.813,16.2469 122.5,13.5C 124.563,12.2892 125.563,13.1226 125.5,16C 124.837,19.4726 124.504,22.9726 124.5,26.5C 123.167,26.5 121.833,26.5 120.5,26.5C 119.992,23.1485 118.658,20.1485 116.5,17.5C 115.52,20.0865 115.187,22.7531 115.5,25.5C 114.5,25.5 113.5,25.5 112.5,25.5C 112.689,20.6994 113.356,16.0327 114.5,11.5C 117.9,12.9081 119.9,15.5747 120.5,19.5 Z"/></g>
<g><path style="opacity:1" fill="#c56977" d="M 122.5,13.5 C 122.813,16.2469 122.48,18.9135 121.5,21.5C 120.702,21.0431 120.369,20.3764 120.5,19.5C 121.167,17.5 121.833,15.5 122.5,13.5 Z"/></g>
<g><path style="opacity:1" fill="#f3dbde" d="M 101.5,11.5 C 102.822,11.33 103.989,11.6634 105,12.5C 105.92,15.9382 107.587,18.9382 110,21.5C 110.49,22.7932 110.657,24.1266 110.5,25.5C 109.5,25.5 108.5,25.5 107.5,25.5C 107.5,24.5 107.5,23.5 107.5,22.5C 103.427,22.5565 99.7599,23.3899 96.5,25C 98.3097,20.5484 99.9763,16.0484 101.5,11.5 Z"/></g>
<g><path style="opacity:1" fill="#bf5f63" d="M 103.5,16.5 C 105.176,17.1834 105.843,18.5168 105.5,20.5C 104.022,20.762 102.689,20.4287 101.5,19.5C 102.612,18.7348 103.279,17.7348 103.5,16.5 Z"/></g>
<g><path style="opacity:1" fill="#fafafa" d="M 29.5,36.5 C 3.19242,68.6619 -3.64091,104.662 9,144.5C 9.48066,146.478 10.6473,147.811 12.5,148.5C 25.1824,142.412 38.1824,137.078 51.5,132.5C 54.0134,136.858 57.0134,140.858 60.5,144.5C 69.4685,157.334 81.8019,165.168 97.5,168C 127.819,171.305 149.819,159.472 163.5,132.5C 163.833,132.5 164.167,132.5 164.5,132.5C 170.735,135.118 177.068,137.452 183.5,139.5C 183.842,140.338 184.508,140.672 185.5,140.5C 191.788,143.772 198.288,146.772 205,149.5C 220.228,108.201 214.061,70.5346 186.5,36.5C 195.433,45.2999 202.267,55.6333 207,67.5C 221.774,109.109 215.108,146.776 187,180.5C 152.769,213.949 112.936,222.782 67.5,207C 30.1019,190.071 8.26855,161.238 2,120.5C -1.01419,91.2186 6.31915,64.8853 24,41.5C 25.7038,39.6266 27.5372,37.9599 29.5,36.5 Z"/></g>
<g><path style="opacity:1" fill="#f58745" d="M 15.5,97.5 C 18.317,97.8005 18.9837,99.1339 17.5,101.5C 17.9377,102.506 18.6043,102.506 19.5,101.5C 19.8333,102.333 20.1667,103.167 20.5,104C 20.365,108.861 20.365,113.694 20.5,118.5C 21.9549,120.22 22.7883,122.22 23,124.5C 23.3333,124.167 23.6667,123.833 24,123.5C 25.7269,126.444 25.2269,129.111 22.5,131.5C 24.316,133.817 26.316,135.984 28.5,138C 27.8333,138.667 27.1667,138.667 26.5,138C 24.6499,135.982 22.6499,134.149 20.5,132.5C 17.5421,133.61 15.3754,132.61 14,129.5C 12.0485,125.702 10.8819,121.869 10.5,118C 11.0223,117.05 11.689,116.216 12.5,115.5C 9.40335,113.472 9.07002,111.305 11.5,109C 10.5939,107.301 10.2606,105.467 10.5,103.5C 11.5,103.5 12.5,103.5 13.5,103.5C 13.2525,101.142 13.9192,99.1417 15.5,97.5 Z"/></g>
<g><path style="opacity:1" fill="#f78b46" d="M 185.5,140.5 C 184.508,140.672 183.842,140.338 183.5,139.5C 187.253,137.583 190.253,134.75 192.5,131C 190.876,129.883 189.876,128.383 189.5,126.5C 189.559,124.233 190.392,123.567 192,124.5C 192.113,120.451 193.28,116.785 195.5,113.5C 194.833,112.5 194.167,111.5 193.5,110.5C 195.829,108.65 196.163,106.483 194.5,104C 195.618,101.941 196.285,99.7743 196.5,97.5C 198.39,97.2965 199.89,97.9632 201,99.5C 201.538,102.08 202.704,104.247 204.5,106C 204.05,107.285 203.383,108.452 202.5,109.5C 205.167,111.5 205.167,113.5 202.5,115.5C 203.311,116.216 203.978,117.05 204.5,118C 202.594,119.787 202.261,121.787 203.5,124C 201.833,126.833 200.167,129.667 198.5,132.5C 196.865,133.33 195.198,133.497 193.5,133C 190.938,135.733 188.271,138.233 185.5,140.5 Z"/></g>
<g><path style="opacity:1" fill="#3d2a2c" d="M 164.5,132.5 C 164.167,132.5 163.833,132.5 163.5,132.5C 163.672,131.508 163.338,130.842 162.5,130.5C 171.829,103.982 166.162,81.1485 145.5,62C 126.343,48.4769 105.676,45.8102 83.5,54C 54.1697,70.2999 43.6697,94.7999 52,127.5C 54.3327,133.499 57.166,139.165 60.5,144.5C 57.0134,140.858 54.0134,136.858 51.5,132.5C 45.2139,113.668 46.3805,95.3347 55,77.5C 75.8362,48.1624 103.003,40.3291 136.5,54C 165.744,72.8906 175.078,99.0572 164.5,132.5 Z"/></g>
<g><path style="opacity:1" fill="#f6e8ea" d="M 16.5,81.5 C 19.703,81.6815 21.5363,83.3482 22,86.5C 24.0935,84.2157 26.2602,83.7157 28.5,85C 26.9329,86.8104 24.9329,87.977 22.5,88.5C 21.5713,89.6888 21.238,91.0222 21.5,92.5C 23.1667,92.5 24.8333,92.5 26.5,92.5C 26.719,93.675 26.3857,94.675 25.5,95.5C 21.0678,94.4157 16.7344,93.0824 12.5,91.5C 12.9708,87.7674 14.3041,84.434 16.5,81.5 Z"/></g>
<g><path style="opacity:1" fill="#9f161f" d="M 17.5,84.5 C 19.2798,85.9899 19.9465,87.9899 19.5,90.5C 18.1667,90.5 16.8333,90.5 15.5,90.5C 15.6036,88.2972 16.2702,86.2972 17.5,84.5 Z"/></g>
<g><path style="opacity:1" fill="#f6e6e8" d="M 194.5,80.5 C 201.644,81.4676 203.978,85.301 201.5,92C 200.517,92.5908 199.85,92.2575 199.5,91C 200.421,83.0026 197.588,81.5026 191,86.5C 190.184,89.7375 191.35,91.2375 194.5,91C 193.391,89.187 194.058,88.3537 196.5,88.5C 196.357,90.2624 196.691,91.9291 197.5,93.5C 189.812,95.5511 186.979,92.5511 189,84.5C 190.5,82.5313 192.333,81.198 194.5,80.5 Z"/></g>
<g><path style="opacity:1" fill="#f8eced" d="M 192.5,64.5 C 193.995,64.4148 194.995,65.0815 195.5,66.5C 193.399,69.3676 191.899,72.3676 191,75.5C 193.29,73.4045 195.79,72.7379 198.5,73.5C 194.829,76.8342 190.496,78.8342 185.5,79.5C 186.484,76.0352 188.15,72.8685 190.5,70C 187.938,70.3495 185.438,71.1828 183,72.5C 182.833,72 182.667,71.5 182.5,71C 185.698,68.5712 189.032,66.4045 192.5,64.5 Z"/></g>
<g><path style="opacity:1" fill="#f7ebec" d="M 20.5,68.5 C 21.5,68.5 22.5,68.5 23.5,68.5C 23.5,69.5 23.5,70.5 23.5,71.5C 21.4099,71.4501 20.0766,72.4501 19.5,74.5C 20,74.8333 20.5,75.1667 21,75.5C 22.4782,74.0218 23.9782,72.5218 25.5,71C 31.5665,70.2857 33.3998,72.7857 31,78.5C 29.4447,80.5152 27.6114,80.8485 25.5,79.5C 29.2578,77.9849 30.0911,75.6516 28,72.5C 26.3149,74.0175 24.8149,75.6841 23.5,77.5C 20.2083,79.1773 18.2083,78.1773 17.5,74.5C 17.9837,72.1992 18.9837,70.1992 20.5,68.5 Z"/></g>
<g><path style="opacity:1" fill="#f8ecee" d="M 28.5,52.5 C 31.7889,54.6158 34.9556,56.9491 38,59.5C 38.8333,65.3333 36.3333,67.8333 30.5,67C 27.8333,65.3333 25.1667,63.6667 22.5,62C 23.1258,61.2496 23.6258,60.4162 24,59.5C 26.7385,61.7011 29.7385,63.3678 33,64.5C 34.6075,64.2308 35.7741,63.3974 36.5,62C 33.9367,59.4697 31.1033,57.303 28,55.5C 27.5304,54.4232 27.6971,53.4232 28.5,52.5 Z"/></g>
<g><path style="opacity:1" fill="#f8eeef" d="M 173.5,56.5 C 177.709,56.1586 181.875,55.492 186,54.5C 187.662,54.3875 188.829,55.0542 189.5,56.5C 186.912,60.6756 184.079,64.6756 181,68.5C 180.308,67.9747 179.808,67.3081 179.5,66.5C 181.834,63.543 181.334,60.8763 178,58.5C 175.755,59.7946 174.255,59.128 173.5,56.5 Z"/></g>
<g><path style="opacity:1" fill="#aa2e36" d="M 181.5,57.5 C 186.208,57.0076 186.708,58.3409 183,61.5C 181.812,60.4366 181.312,59.1033 181.5,57.5 Z"/></g>
<g><path style="opacity:1" fill="#fafbfb" d="M 162.5,130.5 C 151.856,154.006 133.523,166.339 107.5,167.5C 95.5267,166.926 84.5267,163.426 74.5,157C 69.619,152.946 64.9524,148.779 60.5,144.5C 57.166,139.165 54.3327,133.499 52,127.5C 43.6697,94.7999 54.1697,70.2999 83.5,54C 105.676,45.8102 126.343,48.4769 145.5,62C 166.162,81.1485 171.829,103.982 162.5,130.5 Z"/></g>
<g><path style="opacity:1" fill="#68a486" d="M 96.5,112.5 C 97.4889,117.975 97.8222,123.642 97.5,129.5C 104.5,129.5 111.5,129.5 118.5,129.5C 118.178,123.642 118.511,117.975 119.5,112.5C 119.5,118.5 119.5,124.5 119.5,130.5C 111.833,130.5 104.167,130.5 96.5,130.5C 96.5,124.5 96.5,118.5 96.5,112.5 Z"/></g>
<g><path style="opacity:1" fill="#619f80" d="M 119.5,89.5 C 125.5,89.5 131.5,89.5 137.5,89.5C 137.5,97.1667 137.5,104.833 137.5,112.5C 131.5,112.5 125.5,112.5 119.5,112.5C 124.975,111.511 130.642,111.178 136.5,111.5C 136.5,104.5 136.5,97.5 136.5,90.5C 130.642,90.8222 124.975,90.4889 119.5,89.5 Z"/></g>
<g><path style="opacity:1" fill="#609f7f" d="M 96.5,89.5 C 91.0247,90.4889 85.358,90.8222 79.5,90.5C 79.5,97.5 79.5,104.5 79.5,111.5C 85.358,111.178 91.0247,111.511 96.5,112.5C 90.5,112.5 84.5,112.5 78.5,112.5C 78.5,104.833 78.5,97.1667 78.5,89.5C 84.5,89.5 90.5,89.5 96.5,89.5 Z"/></g>
<g><path style="opacity:1" fill="#076a38" d="M 119.5,89.5 C 124.975,90.4889 130.642,90.8222 136.5,90.5C 136.5,97.5 136.5,104.5 136.5,111.5C 130.642,111.178 124.975,111.511 119.5,112.5C 118.511,117.975 118.178,123.642 118.5,129.5C 111.5,129.5 104.5,129.5 97.5,129.5C 97.8222,123.642 97.4889,117.975 96.5,112.5C 91.0247,111.511 85.358,111.178 79.5,111.5C 79.5,104.5 79.5,97.5 79.5,90.5C 85.358,90.8222 91.0247,90.4889 96.5,89.5C 97.4889,84.0247 97.8222,78.358 97.5,72.5C 104.5,72.5 111.5,72.5 118.5,72.5C 118.178,78.358 118.511,84.0247 119.5,89.5 Z"/></g>
<g><path style="opacity:1" fill="#68a486" d="M 119.5,89.5 C 118.511,84.0247 118.178,78.358 118.5,72.5C 111.5,72.5 104.5,72.5 97.5,72.5C 97.8222,78.358 97.4889,84.0247 96.5,89.5C 96.5,83.5 96.5,77.5 96.5,71.5C 104.167,71.5 111.833,71.5 119.5,71.5C 119.5,77.5 119.5,83.5 119.5,89.5 Z"/></g>
<g><path style="opacity:1" fill="#f7ebed" d="M 36.5,42.5 C 43.2807,41.9422 46.7807,44.9422 47,51.5C 45.7101,53.792 44.0435,55.792 42,57.5C 38.5,54.6667 35,51.8333 31.5,49C 33.0544,46.7131 34.7211,44.5465 36.5,42.5 Z"/></g>
<g><path style="opacity:1" fill="#9e0d1e" d="M 37.5,45.5 C 44.3205,46.1093 45.8205,49.1093 42,54.5C 39.8333,52.3333 37.6667,50.1667 35.5,48C 36.3805,47.2917 37.0472,46.4584 37.5,45.5 Z"/></g>
<g><path style="opacity:1" fill="#f8edee" d="M 173.5,56.5 C 172.053,55.8658 171.387,54.6991 171.5,53C 173.588,45.3856 172.088,44.2189 167,49.5C 166.308,48.9747 165.808,48.3081 165.5,47.5C 168.187,43.9795 171.353,40.9795 175,38.5C 177.553,40.7162 179.72,43.2162 181.5,46C 180.705,49.5584 178.705,50.7251 175.5,49.5C 174.725,51.8432 174.058,54.1766 173.5,56.5 Z"/></g>
<g><path style="opacity:1" fill="#a21b25" d="M 173.5,42.5 C 176.833,42.5 178.5,44.1667 178.5,47.5C 175.916,47.4312 173.916,46.2645 172.5,44C 173.056,43.6174 173.389,43.1174 173.5,42.5 Z"/></g>
<g><path style="opacity:1" fill="#9fdefe" d="M 74.5,135.5 C 99.1757,135.167 123.842,135.5 148.5,136.5C 148.043,137.298 147.376,137.631 146.5,137.5C 122.5,136.833 98.5,136.167 74.5,135.5 Z"/></g>
<g><path style="opacity:1" fill="#4dc1ff" d="M 74.5,135.5 C 98.5,136.167 122.5,136.833 146.5,137.5C 142.814,139.669 138.814,141.336 134.5,142.5C 129.208,140.102 123.708,138.435 118,137.5C 113.701,137.989 109.535,138.989 105.5,140.5C 98.7704,138.859 92.2704,139.525 86,142.5C 82.1108,141.139 78.2775,139.639 74.5,138C 58.5137,136.837 58.5137,136.004 74.5,135.5 Z"/></g>
<g><path style="opacity:1" fill="#60c6fe" d="M 150.5,138.5 C 151.675,138.281 152.675,138.614 153.5,139.5C 149.723,141.435 146.057,143.602 142.5,146C 137.917,147.145 133.251,147.811 128.5,148C 126.44,149.696 124.107,150.863 121.5,151.5C 120.833,151.167 120.167,150.833 119.5,150.5C 122.491,149.004 125.491,147.504 128.5,146C 125.832,144.126 122.832,143.293 119.5,143.5C 115.315,144.062 111.149,144.728 107,145.5C 103.871,145.671 101.037,144.838 98.5,143C 101.179,142.566 103.846,142.732 106.5,143.5C 110.5,142.5 114.5,141.5 118.5,140.5C 124.012,141.589 129.345,143.255 134.5,145.5C 140.442,144.295 145.775,141.962 150.5,138.5 Z"/></g>
<g><path style="opacity:1" fill="#5cc5ff" d="M 65.5,140.5 C 71.8736,141.459 78.0403,143.125 84,145.5C 87.2796,145.296 90.2796,144.296 93,142.5C 93.1667,142.833 93.3333,143.167 93.5,143.5C 91.277,146.027 88.4437,147.36 85,147.5C 80.9855,146.94 77.1521,145.773 73.5,144C 69.8333,143.667 66.1667,143.333 62.5,143C 63.5707,142.148 64.5707,141.315 65.5,140.5 Z"/></g>
<g><path style="opacity:1" fill="#2c2a2a" d="M 39.5,154.5 C 41.9767,155.12 41.9767,156.12 39.5,157.5C 41.6241,158.149 43.6241,158.983 45.5,160C 44.1011,160.595 42.7678,160.428 41.5,159.5C 40.2393,161.453 39.0726,163.453 38,165.5C 37.3486,163.765 37.5153,162.098 38.5,160.5C 36.8918,159.758 35.2251,159.591 33.5,160C 35.3962,157.932 37.3962,156.099 39.5,154.5 Z"/></g>
<g><path style="opacity:1" fill="#323131" d="M 175.5,153.5 C 178.141,154.626 180.807,155.959 183.5,157.5C 181.376,158.149 179.376,158.983 177.5,160C 178.5,160.833 179.5,161.667 180.5,162.5C 177.37,162.424 174.704,160.924 172.5,158C 173.315,156.357 174.315,154.857 175.5,153.5 Z"/></g>
<g><path style="opacity:1" fill="#eaeaea" d="M 175.5,155.5 C 177.048,155.821 177.715,156.821 177.5,158.5C 174.752,158.598 174.086,157.598 175.5,155.5 Z"/></g>
<g><path style="opacity:1" fill="#2b2a2a" d="M 169.5,160.5 C 173.317,162.446 175.15,165.446 175,169.5C 171.036,171.969 167.869,170.969 165.5,166.5C 165.833,166.167 166.167,165.833 166.5,165.5C 168.381,167.734 170.715,169.067 173.5,169.5C 172.909,166.386 171.242,163.886 168.5,162C 169.056,161.617 169.389,161.117 169.5,160.5 Z"/></g>
<g><path style="opacity:1" fill="#494647" d="M 162.5,130.5 C 163.338,130.842 163.672,131.508 163.5,132.5C 149.819,159.472 127.819,171.305 97.5,168C 81.8019,165.168 69.4685,157.334 60.5,144.5C 64.9524,148.779 69.619,152.946 74.5,157C 84.5267,163.426 95.5267,166.926 107.5,167.5C 133.523,166.339 151.856,154.006 162.5,130.5 Z"/></g>
<g><path style="opacity:1" fill="#50c2fe" d="M 95.5,146.5 C 100.357,146.508 104.69,148.008 108.5,151C 105.181,150.843 101.848,150.343 98.5,149.5C 94.7609,150.69 90.9276,151.357 87,151.5C 83.5041,151.735 80.3374,150.902 77.5,149C 83.8599,150.24 89.8599,149.406 95.5,146.5 Z"/></g>
<g><path style="opacity:0.004" fill="#000000" d="M 18.5,170.5 C 17.8333,171.167 17.8333,171.167 18.5,170.5 Z"/></g>
<g><path style="opacity:0.004" fill="#000000" d="M 197.5,170.5 C 198.833,171.167 198.833,171.167 197.5,170.5 Z"/></g>
<g><path style="opacity:1" fill="#403e3e" d="M 47.5,164.5 C 48.5,164.5 49.5,164.5 50.5,164.5C 49.7345,168.035 48.4012,171.369 46.5,174.5C 45.6816,172.892 45.0149,171.225 44.5,169.5C 43.011,169.467 41.6776,168.967 40.5,168C 43.1739,167.33 45.5073,166.163 47.5,164.5 Z"/></g>
<g><path style="opacity:1" fill="#2d2b2b" d="M 161.5,168.5 C 164.196,170.199 166.196,172.533 167.5,175.5C 166.485,178.168 164.818,178.834 162.5,177.5C 163.5,176.833 164.5,176.167 165.5,175.5C 164.018,173.517 162.351,171.684 160.5,170C 161.056,169.617 161.389,169.117 161.5,168.5 Z"/></g>
<g><path style="opacity:0.004" fill="#000000" d="M 21.5,174.5 C 20.8333,175.167 20.8333,175.167 21.5,174.5 Z"/></g>
<g><path style="opacity:1" fill="#302e2e" d="M 54.5,169.5 C 60.9903,173.195 60.9903,176.861 54.5,180.5C 52.444,179.952 50.7774,178.786 49.5,177C 51.4146,174.6 53.0812,172.1 54.5,169.5 Z"/></g>
<g><path style="opacity:1" fill="#dad9d9" d="M 54.5,172.5 C 55.9953,172.415 56.9953,173.081 57.5,174.5C 55.6043,175.639 54.6043,174.973 54.5,172.5 Z"/></g>
<g><path style="opacity:0.004" fill="#000000" d="M 194.5,174.5 C 195.833,175.167 195.833,175.167 194.5,174.5 Z"/></g>
<g><path style="opacity:1" fill="#e9e9e9" d="M 52.5,175.5 C 53.9953,175.415 54.9953,176.081 55.5,177.5C 52.6232,178.911 51.6232,178.244 52.5,175.5 Z"/></g>
<g><path style="opacity:0.004" fill="#000000" d="M 191.5,178.5 C 192.833,179.167 192.833,179.167 191.5,178.5 Z"/></g>
<g><path style="opacity:0.004" fill="#000000" d="M 190.5,179.5 C 190.833,179.5 191.167,179.5 191.5,179.5C 191.315,180.17 190.981,180.17 190.5,179.5 Z"/></g>
<g><path style="opacity:1" fill="#2f2d2d" d="M 154.5,175.5 C 154.897,174.475 155.563,174.308 156.5,175C 158.032,177.034 159.365,179.201 160.5,181.5C 160,181.833 159.5,182.167 159,182.5C 157.202,181.496 155.368,180.996 153.5,181C 154.765,182.337 155.265,183.837 155,185.5C 153.045,183.089 151.211,180.589 149.5,178C 151.92,177.313 154.087,177.813 156,179.5C 156.348,177.86 155.848,176.527 154.5,175.5 Z"/></g>
<g><path style="opacity:0.004" fill="#000000" d="M 189.5,180.5 C 189.833,180.5 190.167,180.5 190.5,180.5C 190.315,181.17 189.981,181.17 189.5,180.5 Z"/></g>
<g><path style="opacity:1" fill="#2e2c2c" d="M 72.5,181.5 C 77.1308,181.739 78.7975,183.905 77.5,188C 75.8876,188.72 74.3876,188.554 73,187.5C 72.1667,188.5 71.3333,189.5 70.5,190.5C 70.1667,190.167 69.8333,189.833 69.5,189.5C 70.9,186.965 71.9,184.298 72.5,181.5 Z"/></g>
<g><path style="opacity:0.004" fill="#000000" d="M 188.5,181.5 C 188.833,181.5 189.167,181.5 189.5,181.5C 189.315,182.17 188.981,182.17 188.5,181.5 Z"/></g>
<g><path style="opacity:1" fill="#2e2d2d" d="M 142.5,181.5 C 146.53,182.367 149.03,184.7 150,188.5C 146.613,186.682 144.613,187.682 144,191.5C 143.174,188.207 142.674,184.874 142.5,181.5 Z"/></g>
<g><path style="opacity:0.004" fill="#000000" d="M 187.5,182.5 C 187.833,182.5 188.167,182.5 188.5,182.5C 188.315,183.17 187.981,183.17 187.5,182.5 Z"/></g>
<g><path style="opacity:0.004" fill="#000000" d="M 186.5,183.5 C 186.833,183.5 187.167,183.5 187.5,183.5C 187.315,184.17 186.981,184.17 186.5,183.5 Z"/></g>
<g><path style="opacity:0.004" fill="#000000" d="M 185.5,184.5 C 185.833,184.5 186.167,184.5 186.5,184.5C 186.315,185.17 185.981,185.17 185.5,184.5 Z"/></g>
<g><path style="opacity:1" fill="#333232" d="M 62.5,176.5 C 63.3764,176.369 64.0431,176.702 64.5,177.5C 63.5,179.5 62.5,181.5 61.5,183.5C 62.2421,184.287 63.0754,184.953 64,185.5C 65.2915,183.751 66.4582,181.918 67.5,180C 68.3317,179.312 68.9984,179.479 69.5,180.5C 68.3327,183.211 66.4994,185.211 64,186.5C 61.8372,186.505 60.3372,185.505 59.5,183.5C 60.7878,181.261 61.7878,178.928 62.5,176.5 Z"/></g>
<g><path style="opacity:1" fill="#bbbaba" d="M 73.5,183.5 C 77.31,184.754 77.31,185.754 73.5,186.5C 73.5,185.5 73.5,184.5 73.5,183.5 Z"/></g>
<g><path style="opacity:1" fill="#3d3b3b" d="M 135.5,184.5 C 136.75,184.577 137.583,185.244 138,186.5C 139.15,188.754 139.484,191.087 139,193.5C 137.346,190.707 136.179,187.707 135.5,184.5 Z"/></g>
<g><path style="opacity:1" fill="#cecdcd" d="M 144.5,183.5 C 146.332,184.14 146.665,185.14 145.5,186.5C 144.614,185.675 144.281,184.675 144.5,183.5 Z"/></g>
<g><path style="opacity:0.004" fill="#000000" d="M 184.5,185.5 C 184.833,185.5 185.167,185.5 185.5,185.5C 185.315,186.17 184.981,186.17 184.5,185.5 Z"/></g>
<g><path style="opacity:0.004" fill="#000000" d="M 183.5,186.5 C 183.833,186.5 184.167,186.5 184.5,186.5C 184.315,187.17 183.981,187.17 183.5,186.5 Z"/></g>
<g><path style="opacity:0.004" fill="#000000" d="M 182.5,187.5 C 182.833,187.5 183.167,187.5 183.5,187.5C 183.315,188.17 182.981,188.17 182.5,187.5 Z"/></g>
<g><path style="opacity:1" fill="#302e2e" d="M 90.5,187.5 C 93.0588,187.39 95.3921,188.056 97.5,189.5C 96.3839,189.402 95.3839,189.902 94.5,191C 93.8729,193.135 93.3729,195.302 93,197.5C 92.7777,193.944 91.9444,190.611 90.5,187.5 Z"/></g>
<g><path style="opacity:0.004" fill="#000000" d="M 181.5,188.5 C 181.833,188.5 182.167,188.5 182.5,188.5C 182.315,189.17 181.981,189.17 181.5,188.5 Z"/></g>
<g><path style="opacity:1" fill="#403e3e" d="M 127.5,186.5 C 133.966,187.623 133.966,188.29 127.5,188.5C 126.589,193.956 128.255,195.289 132.5,192.5C 133.476,194.87 132.476,195.87 129.5,195.5C 125.031,193.502 124.365,190.502 127.5,186.5 Z"/></g>
<g><path style="opacity:0.004" fill="#000000" d="M 180.5,189.5 C 180.833,189.5 181.167,189.5 181.5,189.5C 181.315,190.17 180.981,190.17 180.5,189.5 Z"/></g>
<g><path style="opacity:0.004" fill="#000000" d="M 179.5,190.5 C 179.833,190.5 180.167,190.5 180.5,190.5C 180.315,191.17 179.981,191.17 179.5,190.5 Z"/></g>
<g><path style="opacity:0.004" fill="#000000" d="M 37.5,191.5 C 36.8333,192.167 36.8333,192.167 37.5,191.5 Z"/></g>
<g><path style="opacity:1" fill="#292727" d="M 85.5,185.5 C 85.297,187.638 84.297,189.305 82.5,190.5C 84.0072,191.739 85.1739,191.405 86,189.5C 86.4955,191.473 86.6621,193.473 86.5,195.5C 85.0072,194.555 83.5072,193.555 82,192.5C 81.228,192.645 80.5613,192.978 80,193.5C 79.8333,193 79.6667,192.5 79.5,192C 80.6512,190.177 81.8179,188.344 83,186.5C 83.6708,185.748 84.5041,185.414 85.5,185.5 Z"/></g>
<g><path style="opacity:1" fill="#a6a5a5" d="M 85.5,185.5 C 87.5314,188.708 87.8647,192.041 86.5,195.5C 86.6621,193.473 86.4955,191.473 86,189.5C 85.1739,191.405 84.0072,191.739 82.5,190.5C 84.297,189.305 85.297,187.638 85.5,185.5 Z"/></g>
<g><path style="opacity:0.004" fill="#000000" d="M 178.5,191.5 C 178.833,191.5 179.167,191.5 179.5,191.5C 179.315,192.17 178.981,192.17 178.5,191.5 Z"/></g>
<g><path style="opacity:1" fill="#312f2f" d="M 100.5,188.5 C 102.801,189.06 105.134,189.56 107.5,190C 101.659,190.563 101.326,191.73 106.5,193.5C 99.8333,194.833 99.8333,196.167 106.5,197.5C 104.257,198.474 101.924,198.808 99.5,198.5C 99.4595,195.119 99.7929,191.786 100.5,188.5 Z"/></g>
<g><path style="opacity:1" fill="#585757" d="M 115.5,188.5 C 116.5,188.5 117.5,188.5 118.5,188.5C 118.817,191.572 118.484,194.572 117.5,197.5C 115.099,194.587 113.766,194.921 113.5,198.5C 112.5,198.5 111.5,198.5 110.5,198.5C 110.5,195.5 110.5,192.5 110.5,189.5C 112.911,189.137 114.411,190.137 115,192.5C 115.49,191.207 115.657,189.873 115.5,188.5 Z"/></g>
<g><path style="opacity:0.004" fill="#000000" d="M 174.5,194.5 C 175.833,195.167 175.833,195.167 174.5,194.5 Z"/></g>
<g><path style="opacity:0.004" fill="#000000" d="M 42.5,195.5 C 41.8333,196.167 41.8333,196.167 42.5,195.5 Z"/></g>
<g><path style="opacity:0.004" fill="#000000" d="M 173.5,195.5 C 173.833,195.5 174.167,195.5 174.5,195.5C 174.315,196.17 173.981,196.17 173.5,195.5 Z"/></g>
<g><path style="opacity:0.004" fill="#000000" d="M 45.5,197.5 C 44.8333,198.167 44.8333,198.167 45.5,197.5 Z"/></g>
<g><path style="opacity:0.004" fill="#000000" d="M 170.5,197.5 C 171.833,198.167 171.833,198.167 170.5,197.5 Z"/></g>
</svg>
